<svg width="321" height="245" viewBox="0 0 321 245" fill="none" xmlns="http://www.w3.org/2000/svg">
<path d="M94.36 28.2301L0 122.59L94.36 217C111.798 234.422 135.44 244.208 160.09 244.208C184.74 244.208 208.382 234.422 225.82 217L253.37 189.45L200.44 136.52L179 158C173.995 163.004 167.207 165.815 160.13 165.815C153.053 165.815 146.265 163.004 141.26 158L105.9 122.64L141.26 87.2801C146.265 82.2764 153.053 79.4654 160.13 79.4654C167.207 79.4654 173.995 82.2764 179 87.2801L214.36 122.64L267.29 175.57L320.22 122.64L225.82 28.2301C217.189 19.5963 206.942 12.7475 195.664 8.07482C184.386 3.40211 172.298 0.99707 160.09 0.99707C147.882 0.99707 135.794 3.40211 124.516 8.07482C113.238 12.7475 102.991 19.5963 94.36 28.2301V28.2301Z" fill="white"/>
<path d="M153.15 103.06L133.63 122.59L148.16 137.12C149.726 138.687 151.586 139.93 153.633 140.778C155.68 141.626 157.874 142.062 160.09 142.062C162.306 142.062 164.5 141.626 166.546 140.778C168.593 139.93 170.453 138.687 172.02 137.12L186.55 122.59L167 103.06C165.16 101.23 162.67 100.203 160.075 100.203C157.48 100.203 154.99 101.23 153.15 103.06Z" fill="white"/>
</svg>
