<svg width="14" height="14" viewBox="0 0 14 14" fill="none" xmlns="http://www.w3.org/2000/svg">
<g clip-path="url(#clip0)">
<path d="M13.9559 6.22286C13.9338 6.02609 13.7043 5.87806 13.5058 5.87806C12.8644 5.87806 12.2951 5.50159 12.0564 4.91891C11.8127 4.32224 11.97 3.62651 12.4478 3.18811C12.5983 3.05049 12.6167 2.82005 12.4905 2.66009C12.1621 2.24318 11.789 1.86653 11.3816 1.54013C11.2222 1.41226 10.9879 1.43006 10.8496 1.58318C10.4324 2.04526 9.68287 2.21697 9.10369 1.97533C8.50121 1.72183 8.12093 1.11111 8.15828 0.45559C8.17057 0.249556 8.01994 0.0705243 7.81463 0.046609C7.2917 -0.013936 6.76417 -0.0156918 6.23973 0.042492C6.03703 0.0648936 5.88651 0.239687 5.89323 0.443118C5.91594 1.09222 5.53136 1.69216 4.93468 1.93658C4.36247 2.17035 3.61819 1.99991 3.20183 1.54189C3.06421 1.39101 2.83408 1.37248 2.67357 1.49763C2.25412 1.82681 1.87262 2.20371 1.5412 2.61723C1.41206 2.77798 1.43113 3.01095 1.58291 3.14906C2.07024 3.59037 2.22736 4.29208 1.97434 4.89572C1.73276 5.4712 1.13524 5.84191 0.451268 5.84191C0.22931 5.83477 0.0713479 5.98389 0.0468272 6.18575C-0.0146866 6.71146 -0.0153526 7.24741 0.0438605 7.77742C0.0659594 7.97504 0.302266 8.1218 0.502913 8.1218C1.1126 8.1063 1.69759 8.48349 1.94334 9.08089C2.18788 9.67756 2.03046 10.373 1.55179 10.812C1.40207 10.9496 1.38293 11.1795 1.50935 11.3393C1.83442 11.7536 2.20786 12.1305 2.61654 12.4597C2.77698 12.5889 3.01032 12.5708 3.14939 12.4175C3.56825 11.9543 4.31761 11.7829 4.89442 12.025C5.49866 12.2778 5.87876 12.8885 5.84165 13.5442C5.82948 13.7502 5.98048 13.9298 6.18506 13.9532C6.45267 13.9845 6.72167 14 6.99152 14C7.24762 14 7.50379 13.986 7.75996 13.9575C7.9629 13.9351 8.11318 13.7601 8.10633 13.5566C8.0829 12.9078 8.46833 12.3078 9.06428 12.0639C9.6403 11.8286 10.3813 12.0008 10.7979 12.4582C10.9362 12.6087 11.1649 12.627 11.3261 12.5023C11.7448 12.174 12.1256 11.7973 12.4585 11.3827C12.5878 11.2222 12.5694 10.989 12.4168 10.8506C11.9296 10.4096 11.7716 9.70759 12.0246 9.10456C12.2624 8.53683 12.8377 8.15564 13.4565 8.15564L13.5431 8.15794C13.744 8.17423 13.9286 8.01954 13.9529 7.81459C14.0147 7.2884 14.0153 6.75306 13.9559 6.22286ZM6.99994 11.0356C4.77109 11.0356 2.96437 9.22886 2.96437 7.00008C2.96437 4.7713 4.77115 2.96457 6.99994 2.96457C9.22872 2.96457 11.0355 4.7713 11.0355 7.00008C11.0355 7.75659 10.8269 8.46418 10.4647 9.06927L8.69762 7.30214C8.82555 7.0005 8.89312 6.6735 8.89306 6.33602C8.89306 5.67517 8.63568 5.05392 8.16833 4.5867C7.70111 4.11947 7.07985 3.86215 6.41913 3.86215C6.19862 3.86215 5.97915 3.89146 5.76682 3.94928C5.67382 3.97465 5.59777 4.0513 5.57301 4.14448C5.5477 4.23977 5.57622 4.33743 5.65069 4.41196C5.65069 4.41196 6.52308 5.29108 6.81497 5.5829C6.84555 5.61348 6.84549 5.68644 6.84119 5.71271L6.83846 5.7319C6.80904 6.05279 6.75231 6.43798 6.70551 6.58601C6.69921 6.59225 6.69328 6.59752 6.68686 6.60393C6.68014 6.61065 6.67396 6.61713 6.66748 6.62379C6.51751 6.67193 6.12639 6.72932 5.80042 6.75851L5.80048 6.75675L5.78583 6.76044C5.78322 6.76075 5.77838 6.76111 5.77196 6.76111C5.73672 6.76111 5.6849 6.75124 5.63779 6.7042C5.33398 6.40038 4.49579 5.56819 4.49579 5.56819C4.4206 5.49324 4.34346 5.47749 4.29206 5.47749C4.17224 5.47749 4.06496 5.56407 4.03117 5.68825C3.80044 6.54212 4.04504 7.46059 4.66968 8.08529C5.13703 8.55257 5.75834 8.80989 6.41919 8.80989C6.75667 8.80989 7.08367 8.74238 7.38524 8.61445L9.1715 10.4007C8.54438 10.802 7.79967 11.0356 6.99994 11.0356Z" fill="black"/>
</g>
<defs>
<clipPath id="clip0">
<rect width="14" height="14" fill="white"/>
</clipPath>
</defs>
</svg>
