<svg width="50" height="50" viewBox="0 0 50 50" fill="none" xmlns="http://www.w3.org/2000/svg">
<g clip-path="url(#clip0)">
<path d="M49.8423 22.2245C49.7634 21.5218 48.9436 20.9931 48.2348 20.9931C45.9441 20.9931 43.9111 19.6485 43.0585 17.5675C42.1881 15.4366 42.7497 12.9518 44.4564 11.3861C44.9939 10.8946 45.0595 10.0716 44.6088 9.50034C43.436 8.01136 42.1036 6.66618 40.6483 5.50047C40.079 5.04379 39.2424 5.10736 38.7483 5.65422C37.2582 7.3045 34.5815 7.91773 32.513 7.05475C30.3613 6.14939 29.0031 3.96825 29.1366 1.62711C29.1805 0.891271 28.6425 0.251873 27.9092 0.166461C26.0416 -0.0497713 24.1576 -0.056042 22.2846 0.151757C21.5607 0.231763 21.0231 0.856025 21.0471 1.58256C21.1282 3.90079 19.7547 6.04343 17.6237 6.91636C15.5801 7.75123 12.922 7.14254 11.4349 5.50674C10.9434 4.96789 10.1215 4.90173 9.54831 5.34868C8.05026 6.52433 6.68778 7.87038 5.50412 9.34724C5.0429 9.92134 5.11101 10.7534 5.65311 11.2466C7.39356 12.8227 7.95468 15.3289 7.05105 17.4847C6.18828 19.54 4.05429 20.864 1.61151 20.864C0.818806 20.8385 0.254657 21.371 0.167083 22.092C-0.0526089 23.9695 -0.0549875 25.8836 0.156488 27.7765C0.235412 28.4823 1.07937 29.0064 1.79596 29.0064C3.97342 28.9511 6.06265 30.2982 6.94034 32.4318C7.8137 34.5627 7.2515 37.0464 5.54196 38.6143C5.00722 39.1058 4.93889 39.9268 5.39039 40.4974C6.55134 41.9771 7.88506 43.3231 9.34462 44.4988C9.91764 44.9602 10.751 44.8956 11.2477 44.3481C12.7436 42.6939 15.4199 42.0818 17.4799 42.9465C19.6379 43.8495 20.9954 46.0304 20.8629 48.3722C20.8194 49.108 21.3587 49.7493 22.0893 49.8328C23.0451 49.9446 24.0058 50 24.9696 50C25.8842 50 26.7991 49.95 27.714 49.8482C28.4388 49.7682 28.9755 49.1432 28.951 48.4165C28.8674 46.0993 30.2439 43.9565 32.3723 43.0853C34.4295 42.245 37.0757 42.86 38.5636 44.4934C39.0577 45.0312 39.8746 45.0965 40.4503 44.6512C41.9457 43.4786 43.3056 42.1332 44.4944 40.6525C44.9561 40.0794 44.8906 39.2463 44.3455 38.7522C42.6054 37.1772 42.0413 34.67 42.9449 32.5163C43.7943 30.4887 45.8489 29.1273 48.0588 29.1273L48.368 29.1355C49.0855 29.1937 49.7448 28.6412 49.8315 27.9093C50.0523 26.03 50.0546 24.1181 49.8423 22.2245ZM24.9996 39.4128C17.0395 39.4128 10.5869 32.9602 10.5869 25.0003C10.5869 17.0403 17.0397 10.5878 24.9996 10.5878C32.9595 10.5878 39.4123 17.0403 39.4123 25.0003C39.4123 27.7021 38.6674 30.2292 37.3737 32.3902L31.0628 26.0791C31.5197 25.0018 31.761 23.8339 31.7608 22.6287C31.7608 20.2685 30.8416 18.0497 29.1725 16.3811C27.5038 14.7124 25.285 13.7934 22.9253 13.7934C22.1378 13.7934 21.3539 13.8981 20.5956 14.1046C20.2635 14.1952 19.9919 14.4689 19.9035 14.8017C19.8131 15.142 19.9149 15.4908 20.1809 15.757C20.1809 15.757 23.2966 18.8967 24.339 19.9389C24.4482 20.0481 24.448 20.3087 24.4327 20.4025L24.4229 20.4711C24.3178 21.6171 24.1152 22.9928 23.9481 23.5215C23.9256 23.5437 23.9044 23.5626 23.8815 23.5855C23.8575 23.6095 23.8354 23.6326 23.8123 23.6564C23.2767 23.8283 21.8798 24.0333 20.7156 24.1375L20.7158 24.1312L20.6635 24.1444C20.6542 24.1455 20.6369 24.1468 20.614 24.1468C20.4881 24.1468 20.303 24.1116 20.1348 23.9436C19.0498 22.8585 16.0563 19.8864 16.0563 19.8864C15.7877 19.6187 15.5122 19.5625 15.3286 19.5625C14.9007 19.5625 14.5175 19.8717 14.3969 20.3152C13.5728 23.3647 14.4464 26.6449 16.6773 28.876C18.3464 30.5449 20.5653 31.4639 22.9255 31.4639C24.1308 31.4639 25.2987 31.2228 26.3757 30.7659L32.7552 37.1454C30.5155 38.5786 27.8558 39.4128 24.9996 39.4128Z" fill="#3071E7"/>
</g>
<defs>
<clipPath id="clip0">
<rect width="50" height="50" fill="white"/>
</clipPath>
</defs>
</svg>
