<svg width="28" height="28" viewBox="0 0 28 28" fill="none" xmlns="http://www.w3.org/2000/svg">
<g clip-path="url(#clip0)">
<path d="M27.9117 12.4457C27.8675 12.0522 27.4085 11.7561 27.0115 11.7561C25.7287 11.7561 24.5902 11.0032 24.1128 9.83781C23.6254 8.64447 23.9398 7.25303 24.8956 6.37621C25.1966 6.10098 25.2333 5.64011 24.981 5.32019C24.3242 4.48636 23.578 3.73306 22.7631 3.08027C22.4443 2.82452 21.9758 2.86012 21.6991 3.16636C20.8646 4.09052 19.3657 4.43393 18.2073 3.95066C17.0024 3.44366 16.2418 2.22222 16.3165 0.911181C16.3411 0.499112 16.0398 0.141049 15.6292 0.0932181C14.5833 -0.0278719 13.5283 -0.0313835 12.4794 0.0849839C12.074 0.129787 11.773 0.479374 11.7864 0.886236C11.8318 2.18444 11.0626 3.38432 9.86931 3.87316C8.72489 4.34069 7.23633 3.99982 6.40359 3.08378C6.12835 2.78202 5.66809 2.74497 5.34708 2.99526C4.50817 3.65363 3.74518 4.40741 3.08234 5.23446C2.82405 5.55595 2.86219 6.0219 3.16577 6.29811C4.14042 7.18074 4.45465 8.58417 3.94861 9.79144C3.46546 10.9424 2.27043 11.6838 0.902474 11.6838C0.458558 11.6695 0.142635 11.9678 0.0935933 12.3715C-0.0294342 13.4229 -0.0307661 14.4948 0.0876599 15.5548C0.131858 15.9501 0.604472 16.2436 1.00576 16.2436C2.22514 16.2126 3.39511 16.967 3.88662 18.1618C4.3757 19.3551 4.06086 20.746 3.10353 21.624C2.80407 21.8992 2.76581 22.359 3.01864 22.6786C3.66877 23.5072 4.41566 24.261 5.23302 24.9193C5.5539 25.1777 6.02058 25.1415 6.29873 24.8349C7.13643 23.9086 8.63516 23.5658 9.78878 24.05C10.9973 24.5557 11.7575 25.777 11.6832 27.0884C11.6589 27.5005 11.9609 27.8596 12.3701 27.9064C12.9053 27.969 13.4433 28 13.983 28C14.4952 28 15.0075 27.972 15.5199 27.915C15.9257 27.8702 16.2263 27.5202 16.2126 27.1132C16.1657 25.8156 16.9366 24.6156 18.1285 24.1278C19.2805 23.6572 20.7624 24.0016 21.5957 24.9163C21.8724 25.2175 22.3298 25.254 22.6522 25.0047C23.4896 24.348 24.2512 23.5946 24.9169 22.7654C25.1754 22.4445 25.1388 21.9779 24.8335 21.7012C23.8591 20.8192 23.5431 19.4152 24.0492 18.2091C24.5248 17.0737 25.6754 16.3113 26.913 16.3113L27.0861 16.3159C27.4879 16.3485 27.8571 16.0391 27.9057 15.6292C28.0293 14.5768 28.0306 13.5061 27.9117 12.4457ZM13.9998 22.0712C9.54212 22.0712 5.92868 18.4577 5.92868 14.0002C5.92868 9.5426 9.54224 5.92915 13.9998 5.92915C18.4574 5.92915 22.0709 9.5426 22.0709 14.0002C22.0709 15.5132 21.6538 16.9284 20.9293 18.1385L17.3952 14.6043C17.651 14.001 17.7862 13.347 17.786 12.672C17.786 11.3503 17.2713 10.1078 16.3366 9.17339C15.4022 8.23894 14.1596 7.72431 12.8382 7.72431C12.3972 7.72431 11.9582 7.78292 11.5336 7.89856C11.3476 7.94929 11.1955 8.10259 11.146 8.28895C11.0953 8.47955 11.1524 8.67487 11.3013 8.82393C11.3013 8.82393 13.0461 10.5822 13.6299 11.1658C13.691 11.227 13.6909 11.3729 13.6823 11.4254L13.6769 11.4638C13.618 12.1056 13.5045 12.876 13.4109 13.172C13.3984 13.1845 13.3865 13.195 13.3737 13.2079C13.3602 13.2213 13.3479 13.2343 13.3349 13.2476C13.035 13.3439 12.2527 13.4586 11.6008 13.517L11.6009 13.5135L11.5716 13.5209C11.5664 13.5215 11.5567 13.5222 11.5439 13.5222C11.4734 13.5222 11.3697 13.5025 11.2755 13.4084C10.6679 12.8008 8.99153 11.1364 8.99153 11.1364C8.84113 10.9865 8.68686 10.955 8.58406 10.955C8.34442 10.955 8.12985 11.1281 8.06228 11.3765C7.60081 13.0842 8.09001 14.9212 9.3393 16.1706C10.274 17.1051 11.5166 17.6198 12.8383 17.6198C13.5133 17.6198 14.1673 17.4848 14.7704 17.2289L18.3429 20.8014C17.0887 21.604 15.5993 22.0712 13.9998 22.0712Z" fill="#3071E7"/>
</g>
<defs>
<clipPath id="clip0">
<rect width="28" height="28" fill="white"/>
</clipPath>
</defs>
</svg>
