<svg width="50" height="50" viewBox="0 0 50 50" fill="none" xmlns="http://www.w3.org/2000/svg">
<path d="M25 0C11.2152 0 0 11.2152 0 25C0 38.7848 11.2152 50 25 50C38.7848 50 50 38.7848 50 25C50 11.2152 38.7848 0 25 0ZM25 7.2917C31.605 7.2917 36.9792 12.6658 36.9792 19.2709C36.9792 25.876 31.605 31.25 25 31.25C18.395 31.25 13.0208 25.8759 13.0208 19.2708C13.0208 12.6657 18.395 7.2917 25 7.2917ZM25 45.8333C18.1927 45.8333 12.1562 42.5369 8.35225 37.4725C12.5198 35.4672 18.4715 33.3333 25 33.3333C31.529 33.3333 37.4812 35.4675 41.6479 37.4723C37.8438 42.5368 31.8074 45.8333 25 45.8333Z" fill="#3071E7"/>
</svg>
