<svg width="14" height="14" viewBox="0 0 14 14" fill="none" xmlns="http://www.w3.org/2000/svg">
<path d="M7 0C3.14027 0 0 3.14027 0 7C0 10.8597 3.14027 14 7 14C10.8597 14 14 10.8597 14 7C14 3.14027 10.8597 0 7 0ZM7 2.04168C8.84939 2.04168 10.3542 3.54643 10.3542 5.39585C10.3542 7.24527 8.84939 8.75 7 8.75C5.15061 8.75 3.64582 7.24525 3.64582 5.39582C3.64582 3.5464 5.15061 2.04168 7 2.04168ZM7 12.8333C5.09395 12.8333 3.40375 11.9103 2.33863 10.4923C3.50555 9.93081 5.17202 9.33332 7 9.33332C8.82812 9.33332 10.4947 9.93089 11.6614 10.4922C10.5963 11.9103 8.90608 12.8333 7 12.8333Z" fill="black"/>
</svg>
