<svg width="28" height="28" viewBox="0 0 28 28" fill="none" xmlns="http://www.w3.org/2000/svg">
<path d="M11.8145 11.5448C10.3333 11.5448 9.49744 12.8718 9.34759 14.1047C9.24358 14.9606 8.96675 15.8101 8.70447 16.4666H11.8145C13.1715 16.4666 14.2754 15.3627 14.2754 14.0057C14.2754 12.6488 13.1715 11.5448 11.8145 11.5448V11.5448Z" fill="#3071E7"/>
<path d="M27.1797 1.14258H0.820312C0.367281 1.14258 0 1.50986 0 1.96289V16.4667H6.91649C7.1767 15.9109 7.59932 14.8908 7.71898 13.9068C7.84968 12.8319 8.29823 11.8439 8.98204 11.1252C9.73104 10.3378 10.737 9.90423 11.8146 9.90423C12.0113 9.90423 12.2048 9.91905 12.3943 9.94595L17.1955 5.14466C17.6602 4.67982 18.2783 4.42383 18.9356 4.42383C19.5929 4.42383 20.211 4.67982 20.6758 5.14472C21.1405 5.60945 21.3966 6.22748 21.3966 6.88477C21.3966 7.54211 21.1405 8.16008 20.6756 8.62492L15.8744 13.4262C15.9013 13.6156 15.9161 13.809 15.9161 14.0058C15.9161 14.9284 15.6097 15.7807 15.0936 16.4667H28V1.96289C28 1.5098 27.6327 1.14258 27.1797 1.14258V1.14258Z" fill="#3071E7"/>
<path d="M15.2349 11.7456L19.5156 7.46478C19.6706 7.3098 19.7559 7.10379 19.7559 6.88477C19.7559 6.66569 19.6706 6.45973 19.5156 6.3048C19.3606 6.14977 19.1546 6.06445 18.9356 6.06445C18.7165 6.06445 18.5105 6.14977 18.3556 6.3047L14.0748 10.5855C14.5348 10.8905 14.9299 11.2855 15.2349 11.7456Z" fill="#3071E7"/>
<path d="M0 21.1152C0 21.5683 0.367281 21.9355 0.820312 21.9355H27.1797C27.6327 21.9355 28 21.5683 28 21.1152V18.1074H0V21.1152Z" fill="#3071E7"/>
<path d="M18.1016 25.2168H17.2812V23.5762H10.7188V25.2168H9.89844C9.44541 25.2168 9.07812 25.5841 9.07812 26.0371C9.07812 26.4901 9.44541 26.8574 9.89844 26.8574H18.1016C18.5545 26.8574 18.9219 26.4901 18.9219 26.0371C18.9219 25.5841 18.5545 25.2168 18.1016 25.2168Z" fill="#3071E7"/>
</svg>
