<svg width="14" height="14" viewBox="0 0 14 14" fill="none" xmlns="http://www.w3.org/2000/svg">
<path d="M5.90725 5.77246C5.16667 5.77246 4.74872 6.43595 4.6738 7.05241C4.62179 7.48037 4.48337 7.90512 4.35223 8.23338H5.90725C6.58573 8.23338 7.13771 7.6814 7.13771 7.00292C7.13771 6.32445 6.58573 5.77246 5.90725 5.77246V5.77246Z" fill="black"/>
<path d="M13.5898 0.571289H0.410156C0.183641 0.571289 0 0.75493 0 0.981445V8.23336H3.45825C3.58835 7.95544 3.79966 7.4454 3.85949 6.95338C3.92484 6.41593 4.14911 5.92197 4.49102 5.56259C4.86552 5.16892 5.36851 4.95211 5.90729 4.95211C6.00567 4.95211 6.10239 4.95952 6.19713 4.97298L8.59775 2.57233C8.83012 2.33991 9.13913 2.21191 9.4678 2.21191C9.79647 2.21191 10.1055 2.33991 10.3379 2.57236C10.5702 2.80473 10.6983 3.11374 10.6983 3.44238C10.6983 3.77105 10.5702 4.08004 10.3378 4.31246L7.93721 6.71311C7.95063 6.80782 7.95807 6.90448 7.95807 7.00289C7.95807 7.46421 7.80484 7.89036 7.54679 8.23336H14V0.981445C14 0.754902 13.8163 0.571289 13.5898 0.571289V0.571289Z" fill="black"/>
<path d="M7.61743 5.87278L9.75779 3.73239C9.83528 3.6549 9.87797 3.55189 9.87797 3.44238C9.87797 3.33284 9.83528 3.22987 9.75779 3.1524C9.6803 3.07488 9.57732 3.03223 9.46778 3.03223C9.35824 3.03223 9.25527 3.07488 9.1778 3.15235L7.03741 5.29276C7.2674 5.44526 7.46493 5.64276 7.61743 5.87278Z" fill="black"/>
<path d="M0 10.5576C0 10.7841 0.183641 10.9678 0.410156 10.9678H13.5898C13.8163 10.9678 14 10.7841 14 10.5576V9.05371H0V10.5576Z" fill="black"/>
<path d="M9.05078 12.6084H8.64062V11.7881H5.35938V12.6084H4.94922C4.7227 12.6084 4.53906 12.792 4.53906 13.0186C4.53906 13.2451 4.7227 13.4287 4.94922 13.4287H9.05078C9.27727 13.4287 9.46094 13.2451 9.46094 13.0186C9.46094 12.792 9.27727 12.6084 9.05078 12.6084Z" fill="black"/>
</svg>
