<svg width="50" height="50" viewBox="0 0 50 50" fill="none" xmlns="http://www.w3.org/2000/svg">
<path d="M21.0973 20.6158C18.4524 20.6158 16.9597 22.9855 16.6921 25.1871C16.5064 26.7155 16.0121 28.2325 15.5437 29.4049H21.0973C23.5205 29.4049 25.4918 27.4335 25.4918 25.0103C25.4918 22.5872 23.5205 20.6158 21.0973 20.6158V20.6158Z" fill="#3071E7"/>
<path d="M48.5352 2.04028H1.46484C0.655859 2.04028 0 2.69614 0 3.50513V29.4048H12.3509C12.8155 28.4123 13.5702 26.5907 13.7839 24.8334C14.0173 22.914 14.8183 21.1499 16.0394 19.8664C17.3769 18.4604 19.1732 17.6861 21.0975 17.6861C21.4488 17.6861 21.7942 17.7125 22.1326 17.7606L30.7063 9.18687C31.5361 8.35679 32.6397 7.89966 33.8136 7.89966C34.9874 7.89966 36.091 8.35679 36.921 9.18696C37.7509 10.0168 38.2082 11.1205 38.2082 12.2942C38.2082 13.468 37.7509 14.5715 36.9208 15.4016L28.3472 23.9753C28.3951 24.3136 28.4217 24.6588 28.4217 25.0103C28.4217 26.6579 27.8744 28.1798 26.9528 29.4048H50V3.50513C50 2.69605 49.344 2.04028 48.5352 2.04028V2.04028Z" fill="#3071E7"/>
<path d="M27.2051 20.9742L34.8492 13.3299C35.126 13.0532 35.2784 12.6853 35.2784 12.2942C35.2784 11.903 35.126 11.5352 34.8492 11.2585C34.5725 10.9817 34.2047 10.8293 33.8135 10.8293C33.4223 10.8293 33.0545 10.9817 32.7778 11.2584L25.1336 18.9027C25.955 19.4473 26.6605 20.1527 27.2051 20.9742Z" fill="#3071E7"/>
<path d="M0 37.7057C0 38.5147 0.655859 39.1705 1.46484 39.1705H48.5352C49.344 39.1705 50 38.5147 50 37.7057V32.3346H0V37.7057Z" fill="#3071E7"/>
<path d="M32.3242 45.0299H30.8594V42.1002H19.1406V45.0299H17.6758C16.8668 45.0299 16.2109 45.6858 16.2109 46.4948C16.2109 47.3037 16.8668 47.9596 17.6758 47.9596H32.3242C33.1331 47.9596 33.7891 47.3037 33.7891 46.4948C33.7891 45.6858 33.1331 45.0299 32.3242 45.0299Z" fill="#3071E7"/>
</svg>
